<?xml version="1.0" encoding="utf-8"?>
<!-- Generator: Adobe Illustrator 22.0.1, SVG Export Plug-In . SVG Version: 6.00 Build 0)  -->
<svg version="1.1" id="Layer_1" xmlns="http://www.w3.org/2000/svg" xmlns:xlink="http://www.w3.org/1999/xlink" x="0px" y="0px"
	 viewBox="0 0 32 32" style="enable-background:new 0 0 32 32;" xml:space="preserve">
<title></title>
<g id="_1">
	<path d="M26.6,32H5.4c-2.2,0-4-1.8-4-4V4c0-2.2,1.8-4,4-4h14.9c0.3,0,0.6,0.1,0.8,0.3l9.1,9.1c0.2,0.2,0.3,0.5,0.3,0.8V28
		C30.6,30.2,28.8,32,26.6,32z M5.4,2.4C4.5,2.4,3.8,3.1,3.8,4v24c0,0.9,0.7,1.6,1.6,1.6h21.2c0.9,0,1.6-0.7,1.6-1.6V10.8l-8.4-8.4
		H5.4z"/>
	<path d="M29.4,11.5h-6.3c-2.2,0-4-1.8-4-4V1.2c0-0.7,0.5-1.2,1.2-1.2s1.2,0.5,1.2,1.2v6.3c0,0.9,0.7,1.6,1.6,1.6h6.3
		c0.7,0,1.2,0.5,1.2,1.2S30.1,11.5,29.4,11.5L29.4,11.5z"/>
	<path d="M14.7,24.8c-0.4,0-0.8-0.2-1-0.5l-3.5-5.4c-0.4-0.5-0.2-1.3,0.3-1.7c0.5-0.4,1.3-0.2,1.7,0.3c0,0,0,0,0,0l2.5,3.9l4.9-7.5
		c0.4-0.6,1.1-0.7,1.7-0.4c0.6,0.4,0.7,1.1,0.4,1.7l-5.9,9C15.5,24.6,15.2,24.8,14.7,24.8z"/>
</g>
</svg>
