<?xml version="1.0" encoding="utf-8"?>
<!-- Generator: Adobe Illustrator 22.0.1, SVG Export Plug-In . SVG Version: 6.00 Build 0)  -->
<svg version="1.1" id="Layer_1" xmlns="http://www.w3.org/2000/svg" xmlns:xlink="http://www.w3.org/1999/xlink" x="0px" y="0px"
	 viewBox="0 0 32 32" style="enable-background:new 0 0 32 32;" xml:space="preserve">
<style type="text/css">
	.st0{fill:#212121;}
</style>
<path class="st0" d="M22.5,1.1l8.4,8.4c1.5,1.5,1.5,3.9,0,5.4L16.3,29.5l10.3,0c0.6,0,1.2,0.5,1.3,1.1l0,0.2c0,0.6-0.5,1.2-1.1,1.3
	l-0.2,0l-14.2,0c-1,0.1-2.1-0.3-2.9-1.1l-8.4-8.4c-1.5-1.5-1.5-3.9,0-5.4l16-16C18.6-0.4,21-0.4,22.5,1.1z M5.4,16.4l-2.5,2.5
	c-0.5,0.5-0.5,1.3,0,1.8l8.4,8.4c0.2,0.2,0.6,0.4,0.9,0.4l0,0l0.1,0c0.3,0,0.6-0.1,0.8-0.4l2.5-2.5L5.4,16.4z M18.9,2.9L7.2,14.7
	l10.2,10.2l11.8-11.8c0.5-0.5,0.5-1.3,0-1.8l-8.4-8.4C20.2,2.4,19.4,2.4,18.9,2.9z"/>
</svg>
