<?xml version="1.0" encoding="utf-8"?>
<!-- Generator: Adobe Illustrator 22.0.1, SVG Export Plug-In . SVG Version: 6.00 Build 0)  -->
<svg version="1.1" id="Layer_1" xmlns="http://www.w3.org/2000/svg" xmlns:xlink="http://www.w3.org/1999/xlink" x="0px" y="0px"
	 viewBox="0 0 16 16" style="enable-background:new 0 0 16 16;" xml:space="preserve">
<title></title>
<path d="M15.5,1.8c-0.3-0.1-0.6-0.1-0.8,0.1l-1.1,0.9c-1.5-1.7-3.6-2.7-5.8-2.7C3.5,0.2,0,3.7,0,8c0,4.3,3.5,7.8,7.8,7.8
	c3.3,0,6.3-2.1,7.4-5.2c0.1-0.4-0.1-0.9-0.5-1c-0.4-0.1-0.9,0.1-1,0.5c-1.2,3.2-4.7,5-8,3.8c-3.2-1.2-5-4.7-3.8-8
	c0.9-2.5,3.2-4.2,5.9-4.2c1.8,0,3.5,0.8,4.7,2.2l-1.3,1.1c-0.2,0.2-0.3,0.6-0.2,0.9c0.1,0.3,0.4,0.5,0.7,0.5h3.5
	c0.4,0,0.8-0.3,0.8-0.8V2.5C16,2.2,15.8,2,15.5,1.8z"/>
</svg>
