<?xml version="1.0" encoding="utf-8"?>
<!-- Generator: Adobe Illustrator 27.0.1, SVG Export Plug-In . SVG Version: 6.00 Build 0)  -->
<svg version="1.1" id="Layer_1" xmlns="http://www.w3.org/2000/svg" xmlns:xlink="http://www.w3.org/1999/xlink" x="0px" y="0px"
	 viewBox="0 0 48 48" style="enable-background:new 0 0 48 48;" xml:space="preserve">
<title></title>
<path d="M26.23,24l14.8-14.8c0.64-0.64,0.64-1.67,0-2.23c-0.64-0.64-1.67-0.64-2.23,0L24,21.77L9.2,6.98
	c-0.64-0.64-1.67-0.64-2.23,0s-0.64,1.67,0,2.23L21.77,24L6.98,38.8c-0.64,0.64-0.64,1.59,0,2.23l0,0c0.64,0.64,1.59,0.64,2.23,0
	l0,0L24,26.23l14.8,14.8c0.64,0.64,1.59,0.64,2.23,0l0,0c0.64-0.64,0.64-1.59,0-2.23l0,0L26.23,24z"/>
</svg>
