<?xml version="1.0" encoding="utf-8"?>
<!-- Generator: Adobe Illustrator 22.0.1, SVG Export Plug-In . SVG Version: 6.00 Build 0)  -->
<svg version="1.1" id="Layer_1" xmlns="http://www.w3.org/2000/svg" xmlns:xlink="http://www.w3.org/1999/xlink" x="0px" y="0px"
	 viewBox="0 0 32 32" style="enable-background:new 0 0 32 32;" xml:space="preserve">
<path d="M19.1,26.5h-2v-1.7c1-0.1,2-0.5,2.9-0.9l-2.2-1.7c-0.7,0.2-1.5,0.4-2.3,0.3c-3.3-0.2-6-3.3-6-6.6v-0.2l-2.4-1.9v1.9
	c0,4.5,3.2,8.5,7.6,9.1v1.7h-2c-0.9,0-1.6,0.7-1.6,1.6c0,0.5,0.4,0.8,0.8,0.8h8c0.4,0,0.8-0.4,0.8-0.8C20.7,27.2,20,26.5,19.1,26.5z
	 M31.5,26.8l-8-6.2c0.8-1.3,1.2-2.8,1.2-4.4v-2c0-0.7-0.5-1.2-1.2-1.2s-1.2,0.5-1.2,1.2v2c0,1.1-0.3,2-0.7,2.9l-1.3-1
	c0.3-0.6,0.4-1.2,0.4-1.9h-2.9l-1.7-1.4c0.1-0.2,0.3-0.3,0.6-0.3h4v-1.6h-4c-0.4,0-0.8-0.4-0.8-0.8c0-0.4,0.4-0.8,0.8-0.8h4V9.7h-4
	c-0.4,0-0.8-0.4-0.8-0.8c0-0.4,0.4-0.8,0.8-0.8h4c0-2.7-2.2-4.9-4.9-4.8c-2.6,0-4.7,2.3-4.7,4.9v2.5L1.9,3.4
	C1.7,3.2,1.4,3.1,1.2,3.1c-0.4,0-0.7,0.2-0.9,0.5C-0.1,4.1,0,4.9,0.5,5.3l29.6,23.2c0.5,0.4,1.3,0.3,1.7-0.2
	C32.1,27.9,32,27.2,31.5,26.8z"/>
</svg>
