<?xml version="1.0" encoding="utf-8"?>
<!-- Generator: Adobe Illustrator 22.0.1, SVG Export Plug-In . SVG Version: 6.00 Build 0)  -->
<svg version="1.1" id="Layer_1" xmlns="http://www.w3.org/2000/svg" xmlns:xlink="http://www.w3.org/1999/xlink" x="0px" y="0px"
	 viewBox="0 0 32 32" style="enable-background:new 0 0 32 32;" xml:space="preserve">
<path d="M16,21.9c3.3,0,6-2.7,6-6h-5c-0.6,0-1-0.5-1-1c0-0.6,0.4-1,1-1h5v-2h-5c-0.6,0-1-0.5-1-1c0-0.6,0.4-1,1-1h5V7.8h-5
	c-0.6,0-1-0.4-1-1s0.4-1,1-1l5,0.1c0-3.3-2.7-6-6-6s-6,2.7-6,6v10C10,19.2,12.6,21.9,16,21.9z M25.5,11.9c-0.8,0-1.5,0.7-1.5,1.4
	v2.6c0,4.6-3.9,8.3-8.5,8C11.4,23.7,8,19.7,8,15.6v-2.2c0-0.8-0.7-1.4-1.5-1.4S5,12.8,5,13.4v2c0,5.6,4,10.6,9.5,11.4v2.2H12
	c-1.1,0-2.1,0.9-2,2.1c0,0.5,0.5,0.9,1,0.9h10c0.5,0,1-0.4,1-0.9c0.1-1.1-0.9-2.1-2-2.1h-2.5v-2.1c5.4-0.7,9.5-5.3,9.5-10.9v-2.6
	C27,12.6,26.3,11.9,25.5,11.9z"/>
</svg>
