<?xml version="1.0" encoding="utf-8"?>
<!-- Generator: Adobe Illustrator 22.0.1, SVG Export Plug-In . SVG Version: 6.00 Build 0)  -->
<svg version="1.1" id="Layer_1" xmlns="http://www.w3.org/2000/svg" xmlns:xlink="http://www.w3.org/1999/xlink" x="0px" y="0px"
	 viewBox="0 0 32 32" style="enable-background:new 0 0 32 32;" xml:space="preserve">
<title></title>
<g>
	<path d="M16,16c1.1,0,2-0.9,2-2c0,0,0,0,0,0V2c0-1.1-0.9-2-2-2s-2,0.9-2,2v12C14,15.1,14.9,16,16,16C16,16,16,16,16,16z"/>
	<path d="M25.3,7.6c-0.8-0.7-2.1-0.7-2.8,0.2c-0.7,0.8-0.7,2.1,0.2,2.8c2.1,1.9,3.3,4.5,3.3,7.3c0,5.5-4.5,10-10,10s-10-4.5-10-10
		c0-2.8,1.2-5.5,3.3-7.3c0.8-0.7,0.9-2,0.1-2.8C8.8,7,7.5,6.9,6.7,7.6c-5.7,5.1-6.2,14-1.1,19.7s14,6.2,19.7,1.1s6.2-14,1.1-19.7
		C26.1,8.3,25.7,8,25.3,7.6L25.3,7.6z"/>
</g>
</svg>
