<?xml version="1.0" encoding="utf-8"?>
<!-- Generator: Adobe Illustrator 22.0.1, SVG Export Plug-In . SVG Version: 6.00 Build 0)  -->
<svg version="1.1" id="Layer_1" xmlns="http://www.w3.org/2000/svg" xmlns:xlink="http://www.w3.org/1999/xlink" x="0px" y="0px"
	 viewBox="0 0 32 32" style="enable-background:new 0 0 32 32;" xml:space="preserve">
<g id="Glyph">
	<g id="Glyph-2">
		<path d="M30.9,12.7l-3.6-0.4c-0.2-0.6-0.4-1.2-0.7-1.8l2.2-2.8c0.4-0.5,0.3-1.1-0.1-1.6l-2.9-2.9c-0.4-0.4-1.1-0.5-1.6-0.1
			l-2.8,2.2c-0.5-0.3-1.1-0.5-1.7-0.7l-0.4-3.6C19.2,0.5,18.7,0,18.1,0H14c-0.6,0-1.2,0.5-1.2,1.1l-0.4,3.6
			c-0.6,0.2-1.2,0.4-1.8,0.7L7.8,3.2C7.3,2.8,6.6,2.8,6.2,3.2L3.2,6.2C2.8,6.6,2.8,7.3,3.2,7.8l2.2,2.8c-0.3,0.6-0.5,1.1-0.7,1.7
			l-3.6,0.4C0.5,12.8,0,13.3,0,13.9V18c0,0.6,0.5,1.2,1.1,1.2l3.6,0.4c0.2,0.6,0.4,1.2,0.7,1.8l-2.2,2.8c-0.4,0.5-0.3,1.2,0.1,1.6
			l2.9,2.9c0.4,0.4,1.1,0.5,1.6,0.1l2.8-2.2c0.6,0.3,1.2,0.5,1.8,0.7l0.4,3.6c0.1,0.6,0.6,1.1,1.2,1.1h4.1c0.6,0,1.2-0.5,1.2-1.1
			l0.4-3.6c0.6-0.2,1.2-0.4,1.8-0.7l2.8,2.2c0.5,0.3,1.1,0.3,1.6-0.1l2.9-2.9c0.4-0.4,0.5-1.1,0.1-1.6l-2.2-2.8
			c0.3-0.6,0.5-1.1,0.7-1.7l3.6-0.4c0.6-0.1,1.1-0.6,1.1-1.2V14C32,13.3,31.5,12.8,30.9,12.7z M16,22.5c-3.6,0-6.5-2.9-6.5-6.5
			c0-3.6,2.9-6.5,6.5-6.5s6.5,2.9,6.5,6.5S19.6,22.5,16,22.5L16,22.5z"/>
	</g>
</g>
</svg>
