<?xml version="1.0" encoding="utf-8"?>
<!-- Generator: Adobe Illustrator 27.0.1, SVG Export Plug-In . SVG Version: 6.00 Build 0)  -->
<svg version="1.1" id="Layer_1" xmlns="http://www.w3.org/2000/svg" xmlns:xlink="http://www.w3.org/1999/xlink" x="0px" y="0px"
	 viewBox="0 0 52 52" style="enable-background:new 0 0 52 52;" xml:space="preserve">
<style type="text/css">
	.st0{display:none;}
	.st1{display:inline;}
	.st2{fill:none;stroke:#000000;stroke-width:6;stroke-miterlimit:10;}
	.st3{fill:none;stroke:#000103;stroke-miterlimit:10;}
	.st4{fill:none;stroke:#000103;stroke-width:6;stroke-miterlimit:10;}
	.st5{fill:#FFFFFF;stroke:#CCCCCC;stroke-miterlimit:10;}
	.st6{fill:none;stroke:#CCCCCC;stroke-width:2;stroke-miterlimit:10;}
</style>
<g id="Слой_1" class="st0">
	<g id="Profile" class="st1">
		<circle cx="26" cy="8.7" r="27.4"/>
		<path d="M41.6,31.7c-4.7,2.5-10,3.9-15.6,4c-5.7,0-11-1.5-15.6-4c-9.6,8.6-24.3,4.5-24.3,31.5l39.7,17.9h0.5L66,63.2
			C65.9,36.3,51.3,40.3,41.6,31.7z"/>
		<path d="M8.4,20.5c0,0,2,5.1,0,13.1c0,0,1.9,2.3,17.6,2.5v-8.6L8.4,20.5z"/>
		<path d="M43.6,20.5c0,0-2,5.1,0,13.1c0,0-1.9,2.3-17.6,2.5v-8.6L43.6,20.5z"/>
		<circle class="st2" cx="26" cy="23.1" r="58"/>
		<path d="M-14,63.2c0,0,13.7,17.8,40.2,17.9c0,0,22.4,1.5,39.7-17.9C65.9,63.2-14,63.2-14,63.2z"/>
	</g>
	<g id="Profile_1_" class="st1">
		<path class="st3" d="M41.6,31.7c-4.7,2.5-10,3.9-15.6,4c-5.7,0-11-1.5-15.6-4c-9.6,8.6-24.3,4.5-24.3,31.5l39.7,17.9h0.5L66,63.2
			C65.9,36.3,51.3,40.3,41.6,31.7z"/>
		<path class="st3" d="M8.4,20.5c0,0,2,5.1,0,13.1c0,0,1.9,2.3,17.6,2.5v-8.6L8.4,20.5z"/>
		<path class="st3" d="M43.6,20.5c0,0-2,5.1,0,13.1c0,0-1.9,2.3-17.6,2.5v-8.6L43.6,20.5z"/>
		<circle class="st4" cx="26" cy="23.1" r="58"/>
		<path class="st3" d="M-14,63.2c0,0,13.7,17.8,40.2,17.9c0,0,22.4,1.5,39.7-17.9C65.9,63.2-14,63.2-14,63.2z"/>
	</g>
	<g id="Слой_2" class="st1">
	</g>
</g>
<circle class="st5" cx="26" cy="15.7" r="13.7"/>
<path class="st5" d="M17.1,26.2c0.2,0.7,0.5,1.9,0.5,1.9l-5,2.4C5.4,33.4,6.2,43,6.2,43c9.1,9.9,30.7,9.9,39.8,0
	c0,0,0.8-9.6-6.4-12.5l-5-2.4c0,0-0.1-0.9,0.1-1.6c0,0-2.8,2.9-8.7,2.9S17.1,26.2,17.1,26.2z"/>
<path class="st6" d="M28.3,43.8"/>
</svg>
