<?xml version="1.0" encoding="utf-8"?>
<!-- Generator: Adobe Illustrator 22.0.1, SVG Export Plug-In . SVG Version: 6.00 Build 0)  -->
<svg version="1.1" id="Layer_1" xmlns="http://www.w3.org/2000/svg" xmlns:xlink="http://www.w3.org/1999/xlink" x="0px" y="0px"
	 viewBox="0 0 32 32" style="enable-background:new 0 0 32 32;" xml:space="preserve">
<style type="text/css">
	.st0{fill:none;stroke:#231F20;stroke-width:3;stroke-linecap:round;stroke-linejoin:round;stroke-miterlimit:10;}
</style>
<g id="Layer_2_1_">
</g>
<g id="Layer_1_1_">
	<g>
		<path class="st0" d="M16,26.1c0,0-8,0-10.4,0s-2.3-2.2-1.9-3.4c1.5-4,4-3.3,4-6.6c0-2.2,0-4.4,0-7.5c0-6.3,6.6-7.1,8.2-7.1
			s8.2,0.8,8.2,7.1c0,3.1,0,5.2,0,7.5c0,3.3,2.6,2.5,4,6.6c0.4,1.2,0.5,3.4-1.9,3.4S16,26.1,16,26.1L16,26.1z"/>
	</g>
	<path class="st0" d="M16,26.1"/>
	<path class="st0" d="M19.8,26.9c0,2-1.7,3.6-3.7,3.6s-3.7-1.6-3.7-3.6"/>
</g>
</svg>
