<?xml version="1.0" encoding="utf-8"?>
<!-- Generator: Adobe Illustrator 22.0.1, SVG Export Plug-In . SVG Version: 6.00 Build 0)  -->
<svg version="1.1" id="Layer_1" xmlns="http://www.w3.org/2000/svg" xmlns:xlink="http://www.w3.org/1999/xlink" x="0px" y="0px"
	 viewBox="0 0 42 42" style="enable-background:new 0 0 42 42;" xml:space="preserve">
<g>
	<path d="M38.5,17.5C38.5,7.9,30.4,0,20.8,0S3.5,7.9,3.5,17.5c0,7.9,4,14.3,11.3,16.3l0,3h-4.4c-0.9,0-0.9,0.7-0.9,1.8v1.8
		c0,1.1,0,1.8,0.9,1.8h20.3c0.8,0,1.1-0.3,1.1-1.4v-2.3c0-1.4-0.1-1.6-1.1-1.6h-4.1v-2.6C33.6,32,38.5,25.4,38.5,17.5z M7,17.5
		c0-7.7,6.3-14,14-14s14,6.3,14,14s-5.9,14-13.6,14S7,25.2,7,17.5z M30.1,38.5v1.8H11.3v-1.8h5.3l0-4.2c0,0.2,3.2,0.7,4.5,0.7
		c1.2,0,2.1-0.2,3.8-0.4v3.9H30.1z"/>
	<path d="M26.3,17.5c0-3-2.3-5.2-5.3-5.2s-5.3,2.3-5.3,5.2s2.3,5.3,5.3,5.3S26.3,20.5,26.3,17.5z M17.5,17.5c0-1.9,1.6-3.5,3.5-3.5
		s3.5,1.6,3.5,3.5S22.9,21,21,21S17.5,19.4,17.5,17.5z"/>
</g>
</svg>
