<?xml version="1.0" encoding="utf-8"?>
<!-- Generator: Adobe Illustrator 22.0.1, SVG Export Plug-In . SVG Version: 6.00 Build 0)  -->
<svg version="1.1" id="Layer_1" xmlns="http://www.w3.org/2000/svg" xmlns:xlink="http://www.w3.org/1999/xlink" x="0px" y="0px"
	 viewBox="0 0 42 42" style="enable-background:new 0 0 42 42;" xml:space="preserve">
<style type="text/css">
	.st0{fill:none;stroke:#000000;stroke-width:3;stroke-linecap:round;stroke-linejoin:round;}
</style>
<g>
	<path d="M38.3,17.5c0-9.5-8-17.3-17.4-17.3S3.7,8,3.7,17.5c0,7.8,3.9,14.1,11.1,16.1v3h-4.3c-0.9,0-0.9,0.7-0.9,1.8V40
		c0,1.1,0,1.8,0.9,1.8h20c0.8,0,1.1-0.3,1.1-1.4v-2.3c0-1.4-0.1-1.6-1.1-1.6h-4V34C33.4,31.7,38.3,25.2,38.3,17.5z M7.2,17.5
		C7.2,9.9,13.4,3.7,21,3.7s13.8,6.2,13.8,13.8S29,31.3,21.4,31.3S7.2,25,7.2,17.5z M30,38.2v1.8H11.4v-1.8h5.2V34
		c0,0.2,3.2,0.7,4.4,0.7c1.2,0,2.1-0.2,3.7-0.4v3.8H30z"/>
	<path d="M26.2,17.5c0-3-2.3-5.1-5.2-5.1s-5.2,2.3-5.2,5.1s2.3,5.2,5.2,5.2S26.2,20.4,26.2,17.5z M17.5,17.5c0-1.9,1.6-3.5,3.5-3.5
		s3.5,1.6,3.5,3.5s-1.6,3.5-3.5,3.5S17.5,19.3,17.5,17.5z"/>
</g>
<path class="st0" d="M40.4,36.3L1.6,5.7"/>
</svg>
